{"title":"The Battle Of Chernobyl XviD DVDrip-SceneTime","uid":8781409,"size":1173475189,"categoryP":"video","categoryS":"movies","magnet":"?xt=urn:btih:01b3e9bf1c6b09fe4d9b0f4e351ba03cfac9fdcd&amp;dn=The+Battle+Of+Chernobyl+XviD+DVDrip-SceneTime&amp;tr=udp%3A%2F%2Ftracker.openbittorrent.com%3A80&amp;tr=udp%3A%2F%2Fopen.demonii.com%3A1337&amp;tr=udp%3A%2F%2Ftracker.coppersurfer.tk%3A6969&amp;tr=udp%3A%2F%2Fexodus.desync.com%3A6969","seeders":4,"leechers":0,"uploader":"scenetime55","files":5,"time":1375720087,"description":" &lt;a href=&quot;http://www.imdb.com/title/tt1832484/&quot; rel=&quot;nofollow&quot; target=&quot;_NEW&quot;&gt;http://www.imdb.com/title/tt1832484/&lt;/a&gt;\n\nFile size                                : 1.09 GiB\nDuration                                 : 1h 33mn\nOverall bit rate                         : 1 675 Kbps\n\nVideo\nID                                       : 0\nFormat                                   : MPEG-4 Visual\nFormat settings, BVOP                    : Yes\nFormat settings, QPel                    : No\nFormat settings, GMC                     : No warppoints\nFormat settings, Matrix                  : Default (H.263)\nCodec ID                                 : DIVX\nCodec ID/Info                            : Project Mayo\nCodec ID/Hint                            : DivX 4\nDuration                                 : 1h 33mn\nBit rate                                 : 1 511 Kbps\nWidth                                    : 640 pixels\nHeight                                   : 480 pixels\nDisplay aspect ratio                     : 4:3\nFrame rate                               : 25.000 fps\nColor space                              : YUV\nChroma subsampling                       : 4:2:0\nBit depth                                : 8 bits\nScan type                                : Progressive\nCompression mode                         : Lossy\nBits/(Pixel*Frame)                       : 0.197\nStream size                              : 1 010 MiB (90%)\n\nAudio\nID                                       : 1\nFormat                                   : WMA\nFormat version                           : Version 2\nCodec ID                                 : 161\nCodec ID/Info                            : Windows Media Audio\nDuration                                 : 1h 33mn\nBit rate                                 : 160 Kbps\nChannel(s)                               : 2 channels\nSampling rate                            : 44.1 KHz\nBit depth                                : 16 bits\nStream size                              : 107 MiB (10%)\nInterleave, duration                     : 1486 ms (37.16 video frames)\n\nn April 26,1986 at 1 :4am, a rainbow-colored flame shot 1,000 meters high into the Ukrainian sky. The fourth reactor at the Chernobyl nuclear power plant had just exploded. The battle of Chernobyl had begun. For eight months, 800,000 young soldiers, miners and even civilians from all corners of the Soviet Union worked to try and &quot;liquidate&quot; the radioactivity, build a &quot;sarcophagus&quot; around the ruined reactor, and above all, to save the world from a second explosion. Provoked by a terrific chain reaction, a second nuclear explosion ten times more powerful than Hiroshima, threatened at any moment to wipe out not only the entire Ukraine, but half of Europe as well. It was a race against the clock that the first participants in the battle of Chernobyl aren't about to forgot. This documentary uses personal accounts as well as archival footage and documents to recreate the events of the great battle of Chernobyl day-by-day, as each development unfolded.\n","torrent":{"xt":"urn:btih:01b3e9bf1c6b09fe4d9b0f4e351ba03cfac9fdcd","amp;dn":"The+Battle+Of+Chernobyl+XviD+DVDrip-SceneTime","amp;tr":["udp%3A%2F%2Ftracker.openbittorrent.com%3A80","udp%3A%2F%2Fopen.demonii.com%3A1337","udp%3A%2F%2Ftracker.coppersurfer.tk%3A6969","udp%3A%2F%2Fexodus.desync.com%3A6969"],"infoHash":"01b3e9bf1c6b09fe4d9b0f4e351ba03cfac9fdcd","infoHashBuffer":{"type":"Buffer","data":[1,179,233,191,28,107,9,254,77,155,15,78,53,27,160,60,250,201,253,205]},"announce":[],"urlList":[]}}